<?xml version="1.0" encoding="UTF-8"?>
<svg width="20px" height="20px" viewBox="0 0 20 20" version="1.1" xmlns="http://www.w3.org/2000/svg" xmlns:xlink="http://www.w3.org/1999/xlink">
    <!-- Generator: Sketch 51.3 (57544) - http://www.bohemiancoding.com/sketch -->
    <title>play_button</title>
    <desc>Created with Sketch.</desc>
    <defs>
        <path d="M7.77777778,15 L14.4444444,10 L7.77777778,5 L7.77777778,15 Z M10,0 C4.48,0 0,4.48 0,10 C0,15.52 4.48,20 10,20 C15.52,20 20,15.52 20,10 C20,4.48 15.52,0 10,0 Z M10,18.8888889 C5.1,18.8888889 1.11111111,14.9 1.11111111,10 C1.11111111,5.1 5.1,1.11111111 10,1.11111111 C14.9,1.11111111 18.8888889,5.1 18.8888889,10 C18.8888889,14.9 14.9,18.8888889 10,18.8888889 Z" id="path-1"></path>
    </defs>
    <g id="play_button" stroke="none" stroke-width="1" fill="none" fill-rule="evenodd">
        <g id="ic_play_circle_outline_24px">
            <mask id="mask-2" fill="white">
                <use xlink:href="#path-1"></use>
            </mask>
            <use id="Shape" fill="#FFFFFF" fill-rule="nonzero" xlink:href="#path-1"></use>
        </g>
    </g>
</svg>