<?xml version="1.0" encoding="UTF-8"?>
<svg width="27px" height="27px" viewBox="0 0 27 27" version="1.1" xmlns="http://www.w3.org/2000/svg" xmlns:xlink="http://www.w3.org/1999/xlink">
    <!-- Generator: Sketch 51.3 (57544) - http://www.bohemiancoding.com/sketch -->
    <title>target</title>
    <desc>Created with Sketch.</desc>
    <defs></defs>
    <g id="target" stroke="none" stroke-width="1" fill="none" fill-rule="evenodd">
        <path d="M13.5,10 C11.575,10 10,11.575 10,13.5 C10,15.425 11.575,17 13.5,17 C15.425,17 17,15.425 17,13.5 C17,11.575 15.425,10 13.5,10 Z" id="Path" stroke="#FF0077"></path>
        <path d="M13.5,6 C9.375,6 6,9.375 6,13.5 C6,17.625 9.375,21 13.5,21 C17.625,21 21,17.625 21,13.5 C21,9.375 17.625,6 13.5,6 Z" id="Path-Copy" stroke="#FF0077"></path>
        <path d="M13.5,1 C6.625,1 1,6.625 1,13.5 C1,20.375 6.625,26 13.5,26 C20.375,26 26,20.375 26,13.5 C26,6.625 20.375,1 13.5,1 Z" id="Path-Copy-2" stroke="#FF0077"></path>
    </g>
</svg>