<?xml version="1.0" encoding="UTF-8"?>
<svg width="32px" height="32px" viewBox="0 0 32 32" version="1.1" xmlns="http://www.w3.org/2000/svg" xmlns:xlink="http://www.w3.org/1999/xlink">
    <!-- Generator: Sketch 51.3 (57544) - http://www.bohemiancoding.com/sketch -->
    <title>warning-round</title>
    <desc>Created with Sketch.</desc>
    <defs></defs>
    <g id="warning-round" stroke="none" stroke-width="1" fill="none" fill-rule="evenodd">
        <g id="ic_error_outline_48px" fill="#FFC700" fill-rule="nonzero">
            <path d="M14.4,20.8 L17.6,20.8 L17.6,24 L14.4,24 L14.4,20.8 Z M14.4,8 L17.6,8 L17.6,17.6 L14.4,17.6 L14.4,8 Z M15.992,0 C7.152,0 0,7.16 0,16 C0,24.84 7.152,32 15.992,32 C24.832,32 32,24.84 32,16 C32,7.16 24.832,0 15.992,0 Z M16,28.8 C8.928,28.8 3.2,23.072 3.2,16 C3.2,8.928 8.928,3.2 16,3.2 C23.072,3.2 28.8,8.928 28.8,16 C28.8,23.072 23.072,28.8 16,28.8 Z" id="Shape"></path>
        </g>
    </g>
</svg>